<?xml version="1.0" encoding="UTF-8" standalone="no"?>
<!-- Created with Inkscape (http://www.inkscape.org/) -->
<svg
   xmlns:dc="http://purl.org/dc/elements/1.1/"
   xmlns:cc="http://web.resource.org/cc/"
   xmlns:rdf="http://www.w3.org/1999/02/22-rdf-syntax-ns#"
   xmlns:svg="http://www.w3.org/2000/svg"
   xmlns="http://www.w3.org/2000/svg"
   xmlns:xlink="http://www.w3.org/1999/xlink"
   xmlns:sodipodi="http://sodipodi.sourceforge.net/DTD/sodipodi-0.dtd"
   xmlns:inkscape="http://www.inkscape.org/namespaces/inkscape"
   width="365"
   height="218"
   id="svg2"
   sodipodi:version="0.32"
   inkscape:version="0.45"
   sodipodi:docbase="/Users/madeleine"
   sodipodi:docname="mouse.svg"
   inkscape:output_extension="org.inkscape.output.svg.inkscape"
   sodipodi:modified="true">
  <defs
     id="defs4">
    <linearGradient
       id="linearGradient5969">
      <stop
         style="stop-color:#62432a;stop-opacity:1;"
         offset="0"
         id="stop5971" />
      <stop
         style="stop-color:#000000;stop-opacity:1;"
         offset="1"
         id="stop5973" />
    </linearGradient>
    <linearGradient
       id="linearGradient5947">
      <stop
         id="stop5949"
         offset="0"
         style="stop-color:#61442a;stop-opacity:1;" />
      <stop
         id="stop5951"
         offset="1"
         style="stop-color:#000000;stop-opacity:1;" />
    </linearGradient>
    <linearGradient
       id="linearGradient5850">
      <stop
         style="stop-color:#e06161;stop-opacity:0.78431374;"
         offset="0"
         id="stop5852" />
      <stop
         style="stop-color:#eda3a3;stop-opacity:0.39215687;"
         offset="1"
         id="stop5854" />
    </linearGradient>
    <linearGradient
       id="linearGradient5712">
      <stop
         style="stop-color:#787878;stop-opacity:1;"
         offset="0"
         id="stop5714" />
      <stop
         style="stop-color:#000000;stop-opacity:1;"
         offset="1"
         id="stop5716" />
    </linearGradient>
    <linearGradient
       id="linearGradient5626">
      <stop
         style="stop-color:#402207;stop-opacity:1;"
         offset="0"
         id="stop5628" />
      <stop
         style="stop-color:#c4a969;stop-opacity:1;"
         offset="1"
         id="stop5630" />
    </linearGradient>
    <linearGradient
       id="linearGradient5528">
      <stop
         style="stop-color:#fff3ce;stop-opacity:1;"
         offset="0"
         id="stop5530" />
      <stop
         style="stop-color:#997d43;stop-opacity:1;"
         offset="1"
         id="stop5532" />
    </linearGradient>
    <linearGradient
       inkscape:collect="always"
       xlink:href="#linearGradient5626"
       id="linearGradient5829"
       gradientUnits="userSpaceOnUse"
       x1="246.8065"
       y1="454.80344"
       x2="311.6723"
       y2="481.23199"
       gradientTransform="translate(-222.73864,-432.02142)" />
    <radialGradient
       inkscape:collect="always"
       xlink:href="#linearGradient5528"
       id="radialGradient5834"
       gradientUnits="userSpaceOnUse"
       gradientTransform="matrix(1.3805298,0.3177442,-0.1094177,0.4753967,-307.81869,-270.45306)"
       cx="368.98611"
       cy="478.77264"
       fx="368.98611"
       fy="478.77264"
       r="152.3663" />
    <radialGradient
       inkscape:collect="always"
       xlink:href="#linearGradient5712"
       id="radialGradient5860"
       gradientUnits="userSpaceOnUse"
       gradientTransform="matrix(0.7903407,-0.5768562,0.4398144,0.6025809,-351.50108,85.64934)"
       cx="522.42346"
       cy="539.5567"
       fx="522.42346"
       fy="539.5567"
       r="9.6285191" />
    <linearGradient
       inkscape:collect="always"
       xlink:href="#linearGradient5626"
       id="linearGradient5870"
       gradientUnits="userSpaceOnUse"
       x1="434.1041"
       y1="609.42395"
       x2="432.45047"
       y2="636.17456"
       gradientTransform="translate(-222.73864,-428.02142)" />
    <linearGradient
       inkscape:collect="always"
       xlink:href="#linearGradient5626"
       id="linearGradient5872"
       gradientUnits="userSpaceOnUse"
       x1="523.60126"
       y1="621.04797"
       x2="542.62042"
       y2="646.84302"
       gradientTransform="translate(-242.73864,-446.02142)" />
    <linearGradient
       inkscape:collect="always"
       xlink:href="#linearGradient5626"
       id="linearGradient5874"
       gradientUnits="userSpaceOnUse"
       x1="435.24237"
       y1="508.62262"
       x2="471.77313"
       y2="535.05121"
       gradientTransform="translate(-222.73864,-432.02142)" />
    <linearGradient
       inkscape:collect="always"
       xlink:href="#linearGradient5626"
       id="linearGradient5876"
       gradientUnits="userSpaceOnUse"
       x1="540.08557"
       y1="473.39813"
       x2="528.48792"
       y2="510.54568"
       gradientTransform="translate(-222.73864,-432.02142)" />
    <linearGradient
       inkscape:collect="always"
       xlink:href="#linearGradient5626"
       id="linearGradient5878"
       gradientUnits="userSpaceOnUse"
       x1="304.97845"
       y1="564.36359"
       x2="304.97845"
       y2="594.32446"
       gradientTransform="translate(-222.73864,-432.02142)" />
    <linearGradient
       inkscape:collect="always"
       xlink:href="#linearGradient5850"
       id="linearGradient5880"
       x1="573.72821"
       y1="554.46552"
       x2="576.42847"
       y2="561.53656"
       gradientUnits="userSpaceOnUse"
       gradientTransform="translate(-224.48732,-433.04528)" />
    <linearGradient
       inkscape:collect="always"
       xlink:href="#linearGradient5969"
       id="linearGradient5975"
       x1="468.31381"
       y1="538.12262"
       x2="432.41599"
       y2="504.35657"
       gradientUnits="userSpaceOnUse"
       gradientTransform="translate(-222.73864,-432.02142)" />
    <linearGradient
       inkscape:collect="always"
       xlink:href="#linearGradient5969"
       id="linearGradient5983"
       x1="574.42859"
       y1="562.18567"
       x2="504.57626"
       y2="565.18567"
       gradientUnits="userSpaceOnUse"
       gradientTransform="translate(-222.73864,-432.02142)" />
    <linearGradient
       inkscape:collect="always"
       xlink:href="#linearGradient5969"
       id="linearGradient6015"
       x1="569.22821"
       y1="546.23834"
       x2="576.42847"
       y2="561.53656"
       gradientUnits="userSpaceOnUse"
       gradientTransform="translate(-224.48732,-433.04528)" />
    <linearGradient
       inkscape:collect="always"
       xlink:href="#linearGradient5969"
       id="linearGradient6023"
       x1="406.69003"
       y1="499.38306"
       x2="417.31775"
       y2="600.88306"
       gradientUnits="userSpaceOnUse"
       gradientTransform="translate(-222.73864,-432.02142)" />
    <linearGradient
       inkscape:collect="always"
       xlink:href="#linearGradient5969"
       id="linearGradient6035"
       x1="516.94269"
       y1="508.04572"
       x2="542.03314"
       y2="483.04568"
       gradientUnits="userSpaceOnUse"
       gradientTransform="translate(-222.73864,-432.02142)" />
    <linearGradient
       inkscape:collect="always"
       xlink:href="#linearGradient5969"
       id="linearGradient6043"
       x1="304.67316"
       y1="484.86917"
       x2="246.8065"
       y2="454.80344"
       gradientUnits="userSpaceOnUse"
       gradientTransform="translate(-222.73864,-432.02142)" />
    <linearGradient
       inkscape:collect="always"
       xlink:href="#linearGradient5947"
       id="linearGradient3179"
       x1="61.285782"
       y1="114.84213"
       x2="79.193832"
       y2="142.34215"
       gradientUnits="userSpaceOnUse" />
  </defs>
  <sodipodi:namedview
     id="base"
     pagecolor="#ffffff"
     bordercolor="#666666"
     borderopacity="1.0"
     gridtolerance="10000"
     guidetolerance="10"
     objecttolerance="10"
     inkscape:pageopacity="0.0"
     inkscape:pageshadow="2"
     inkscape:zoom="1"
     inkscape:cx="242.51375"
     inkscape:cy="80.600072"
     inkscape:document-units="px"
     inkscape:current-layer="layer1"
     inkscape:window-width="697"
     inkscape:window-height="581"
     inkscape:window-x="455"
     inkscape:window-y="62"
     showguides="true"
     inkscape:guide-bbox="true"
     showgrid="false" />
  <metadata
     id="metadata7">
    <rdf:RDF>
      <cc:Work
         rdf:about="">
        <dc:format>image/svg+xml</dc:format>
        <dc:type
           rdf:resource="http://purl.org/dc/dcmitype/StillImage" />
      </cc:Work>
    </rdf:RDF>
  </metadata>
  <g
     inkscape:label="limb"
     inkscape:groupmode="layer"
     id="layer1">
    <path
       style="fill:url(#linearGradient5878);fill-opacity:1;fill-rule:evenodd;stroke:url(#linearGradient3179);stroke-width:2;stroke-linecap:butt;stroke-linejoin:miter;stroke-opacity:1;stroke-miterlimit:4;stroke-dasharray:none"
       d="M 90.388343,132.47769 C 89.086893,135.0806 87.997093,140.92557 90.408653,141.52846 C 92.716643,142.10545 93.697753,143.17301 95.459413,144.05384 C 96.021713,144.33499 97.733513,149.1096 97.984793,150.11475 C 98.908933,153.8113 96.469563,150.92 96.469563,154.66044 C 96.469563,158.17679 97.176503,159.20613 93.439113,159.20613 C 92.920393,159.20613 89.716133,155.27747 88.893423,154.66044 C 88.681083,154.50119 85.926793,161.14133 85.862963,161.22643 C 83.848023,163.91302 80.989353,156.37919 80.812203,155.67059 C 80.034743,152.56076 78.262673,157.23412 77.781743,158.19597 C 76.166343,161.42678 75.286743,157.81241 74.751283,155.67059 C 74.188843,153.4208 72.924088,151.62998 70.205608,151.62998 C 67.827468,151.62998 68.907148,157.11429 66.670068,152.64013 C 65.087418,149.47482 68.781258,148.00356 70.710678,146.07414 C 72.375808,144.40902 72.757478,141.98054 73.741133,140.01323 C 74.830883,137.83373 72.558588,135.28301 72.225908,133.95231 C 71.893228,132.62161 71.215758,125.13574 71.215758,122.88124"
       id="path5542"
       sodipodi:nodetypes="csssssssssssssssc" />
    <path
       style="fill:url(#linearGradient5829);fill-opacity:1;fill-rule:evenodd;stroke:url(#linearGradient6043);stroke-width:2;stroke-linecap:butt;stroke-linejoin:miter;stroke-opacity:1;stroke-miterlimit:4;stroke-dasharray:none"
       d="M 85.862953,58.67563 C 86.296993,45.19062 72.626188,37.03285 62.253848,31.23028 C 50.735608,25.40145 39.076458,17.85998 26.59459,15.58064 C 10.46633,17.04501 12.26618,35.0109 7.4658,45.18316 C -2.03017,35.71232 7.12388,17.19477 15.65737,9.1984698 C 26.72811,-1.6311902 42.144178,6.8616698 52.921688,13.50305 C 68.492778,22.19948 83.080743,32.44146 97.629493,42.69265 L 99.910243,43.8175 L 102.0051,44.55381"
       id="path5552"
       sodipodi:nodetypes="ccccccccc" />
    <path
       style="fill:url(#linearGradient5872);fill-opacity:1;fill-rule:evenodd;stroke:#000000;stroke-width:2;stroke-linecap:butt;stroke-linejoin:miter;stroke-miterlimit:4;stroke-dasharray:none;stroke-opacity:1"
       d="M 285.12698,143.73151 C 284.5852,145.89863 284.6219,152.34428 284.6219,154.80257 C 284.6219,157.6968 286.03542,160.53786 286.6219,162.88379 C 287.27682,165.50346 289.0634,167.26171 290.15744,169.44979 C 291.12237,171.37964 293.14663,173.33318 294.70312,174.50055 C 295.87293,175.3779 301.29533,178.10291 302.23866,179.04624 C 304.24384,181.05142 307.03741,181.87487 308.80465,182.58177 C 312.00739,183.86287 308.37812,186.03876 307.28942,187.12746 C 306.24912,188.16775 308.0214,193.08583 308.29957,194.19852 C 309.1144,197.45783 309.84975,196.72391 305.77419,196.72391 C 302.83859,196.72391 302.86415,197.49322 301.73358,199.75436 C 300.65981,201.9019 295.20083,197.26222 295.16759,197.22898 C 293.4461,195.50749 293.38947,194.7036 291.12698,194.7036 C 287.82787,194.7036 288.34975,197.35559 285.06607,195.71375 C 284.81765,195.58954 283.06087,189.17799 283.04576,189.14776 C 282.18965,187.43554 283.63904,184.75119 282.50007,183.61223 C 280.59979,181.71195 278.22276,180.85014 276.94423,179.57162 C 275.32344,177.95082 273.88707,177.53128 271.89347,176.03608 C 269.66648,174.36584 266.65891,172.61771 265.34779,169.99547 C 264.79997,168.89984 257.69682,161.78547 256.64832,160.55263"
       id="path5564"
       sodipodi:nodetypes="cssssssssssssssssssc" />
    <path
       style="fill:url(#linearGradient5876);fill-opacity:1;fill-rule:evenodd;stroke:url(#linearGradient6035);stroke-width:2;stroke-linecap:butt;stroke-linejoin:miter;stroke-opacity:1;stroke-miterlimit:4;stroke-dasharray:none"
       d="M 285.70407,71.26377 C 287.4108,70.38579 293.01907,67.35238 294.45946,66.27209 C 297.4975,63.99356 300.63928,60.47844 302.03561,57.68579 C 303.43194,54.89314 306.93152,51.83134 308.6016,49.60457 C 310.75134,46.73825 312.26127,44.20817 315.16759,42.02843 C 316.77137,40.8256 316.17774,47.12563 316.17774,48.59442 C 316.17774,51.3832 316.05137,54.14986 316.68282,56.67564 C 317.3145,59.20238 320.61486,60.49911 321.73358,62.73656 C 322.97802,65.22544 323.25817,67.76543 324.27927,69.80763 C 325.4579,72.16488 325.7945,72.67997 325.7945,75.38377 C 325.7945,76.74112 321.61863,84.10755 320.27927,85.17184"
       id="path5579"
       sodipodi:nodetypes="csssssssssc" />
    <path
       style="fill:url(#linearGradient5870);fill-opacity:1;fill-rule:evenodd;stroke:#000000;stroke-width:2;stroke-linecap:butt;stroke-linejoin:miter;stroke-miterlimit:4;stroke-dasharray:none;stroke-opacity:1"
       d="M 170.01907,167.58049 C 171.14565,169.8402 178.44572,177.71615 181.32238,179.87364 C 184.37152,182.1605 187.00846,183.53942 189.90867,186.43963 C 192.31135,188.84231 194.24041,190.05234 195.46451,192.50055 C 196.6082,194.78791 199.00005,196.25854 199.00005,198.56146 C 199.00005,200.0118 197.29392,205.44164 198.49497,206.64268 C 200.48579,208.6335 201.07663,209.13993 204.05081,207.65284 C 205.49304,206.93172 206.93035,204.62238 208.5965,204.62238 C 212.23901,204.62238 211.8167,205.00188 213.14218,207.65284 C 214.00579,209.38005 215.72703,212.13906 218.19295,209.67314 C 219.23109,208.635 220.12052,205.48308 222.73863,206.13761 C 225.60072,206.85313 226.0074,205.69922 228.29447,205.12746 C 229.35687,204.86186 234.81347,204.57538 231.83001,201.59192 C 231.02745,200.78937 230.05222,197.55131 228.29447,197.55131 C 225.66445,197.55131 224.29017,197.06439 222.23356,196.03608 C 220.56707,195.20284 216.71291,192.07533 216.19295,189.99547 C 215.96544,189.08544 217.01241,175.85089 218.69802,175.42948"
       id="path5599"
       sodipodi:nodetypes="csssssssssssssssc" />
    <path
       style="fill:url(#radialGradient5834);fill-opacity:1;fill-rule:evenodd;stroke:url(#linearGradient6023);stroke-width:2;stroke-linecap:round;stroke-linejoin:round;stroke-opacity:1;stroke-miterlimit:4;stroke-dasharray:none"
       d="M 175.8328,171.41217 C 164.33283,163.47038 149.01777,163.28616 136.77792,156.28126 C 122.23564,151.54607 112.08324,141.58625 98.462503,135.45477 C 86.944033,134.49673 69.159358,130.28461 68.901768,115.41792 C 65.741258,102.81939 61.599848,89.29585 72.692628,79.26638 C 80.990013,67.02519 85.924593,52.59554 98.974643,44.57412 C 117.08976,37.56884 137.6255,43.01261 156.06856,36.47259 C 170.37837,34.05666 186.35166,33.05875 199.20654,40.92037 C 210.50927,55.12177 224.83475,68.9299 243.63325,71.40753 C 258.12366,75.30593 274.08952,76.79066 287.96863,69.7579 C 301.48853,71.50302 315.61114,76.20104 327.04364,83.0288 C 334.30811,90.67922 339.33135,96.96595 348.29697,104.21334 C 358.82321,110.78499 361.71079,120.10986 354.72592,133.00707 C 346.81808,142.4315 342.33386,143.58552 330.24862,146.20122 C 316.11557,147.59861 309.14198,158.68047 298.13012,164.39686 C 283.87531,172.60484 267.82658,178.88082 249.92709,180.43963 C 238.02113,181.22768 226.96555,181.35023 213.80233,179.64002 C 201.3766,175.57724 188.63123,175.78371 175.8328,171.41217 z "
       id="path5601"
       sodipodi:nodetypes="cccccccccccccccccc" />
    <path
       style="fill:url(#linearGradient5874);fill-opacity:1;fill-rule:evenodd;stroke:url(#linearGradient5975);stroke-width:2;stroke-linecap:butt;stroke-linejoin:miter;stroke-opacity:1;stroke-miterlimit:4;stroke-dasharray:none"
       d="M 260.61935,85.97007 C 261.40088,85.38392 254.13112,83.59235 247.99245,79.90915 C 243.80812,77.39856 241.60065,75.02821 236.88077,73.84824 C 232.40196,72.72853 227.4759,72.83808 222.73863,72.83808 C 218.17572,72.83808 214.3558,72.98889 210.6168,74.85839 C 206.4011,76.96624 206.57619,78.48113 206.57619,83.44468 C 206.57619,87.30617 212.76313,92.66208 215.16249,95.06144 C 219.53539,99.43434 223.99854,104.52466 226.27417,110.21373 C 227.02541,110.26982 228.03596,110.63759 228.68993,109.98362 C 229.55272,109.12084 230.66486,107.29441 231.90422,106.05505 C 232.99235,104.96692 233.68993,103.79001 233.68993,101.76933 C 233.68993,99.90594 233.62604,98.09633 234.04708,96.41219 C 234.63106,94.07624 236.76814,95.25578 237.6185,93.55505 C 238.37279,92.04648 239.76796,90.4284 241.54708,89.98362 C 243.19492,89.57166 244.83613,88.98278 246.54708,88.55505 C 248.07675,88.17263 249.26793,87.96412 251.18993,87.48362 C 252.68826,87.10904 257.42365,87.5946 259.04708,86.76933 C 259.57117,86.50291 260.09526,86.23649 260.61935,85.97007 z "
       id="path2178"
       sodipodi:nodetypes="csssssss" />
    <path
       style="fill:url(#radialGradient5860);fill-opacity:1;fill-rule:evenodd;stroke:#000000;stroke-width:2;stroke-linecap:butt;stroke-linejoin:miter;stroke-opacity:1;stroke-miterlimit:4;stroke-dasharray:none"
       d="M 305.06607,114.25434 C 306.71279,113.01931 306.49998,111.91185 307.63206,109.72896 C 307.2743,107.16354 307.4701,106.47876 306.07622,104.17312 C 304.60065,101.73235 301.88511,100.55045 299.00515,101.14266 C 295.81817,101.79801 294.22956,105.4695 292.94423,107.18327 C 291.38548,109.2616 291.93408,112.07907 291.93408,114.75941 C 291.93408,118.00129 296.62329,117.78987 299.00515,117.78987 C 301.67588,117.78987 303.41935,115.48937 305.06607,114.25434 z "
       id="path2182"
       sodipodi:nodetypes="ccssssss" />
    <path
       id="path2184"
       style="fill:none;fill-rule:evenodd;stroke:url(#linearGradient5983);stroke-width:2;stroke-linecap:round;stroke-linejoin:miter;stroke-miterlimit:4;stroke-dasharray:none;stroke-opacity:1"
       d="M 322.74373,126.37617 C 324.26485,126.98533 317.86466,123.93663 312.64221,121.3254 M 323.24881,131.42693 C 317.71193,131.20459 315.84103,131.42693 312.13713,131.42693 C 302.45303,131.42693 290.05218,133.41956 282.33763,134.96246 M 326.78434,135.46754 C 325.31008,135.76239 316.92186,137.80689 312.13713,139.00307"
       sodipodi:nodetypes="cccsccc" />
    <path
       style="fill:url(#linearGradient5880);fill-opacity:1;fill-rule:evenodd;stroke:url(#linearGradient6015);stroke-width:2;stroke-linecap:butt;stroke-linejoin:miter;stroke-miterlimit:4;stroke-dasharray:none;stroke-opacity:1"
       d="M 353.01268,118.3169 C 352.4421,120.44495 350.25995,120.65316 347.65554,121.17404 C 345.79403,121.54635 344.10936,122.05428 343.01268,122.60262 C 342.75879,122.72956 346.39122,124.38833 347.2984,124.38833 C 349.99288,124.38833 349.66123,124.91109 350.15554,126.88833 C 350.72104,129.15033 349.53946,130.36155 351.58411,128.3169 C 352.77581,127.1252 352.65554,126.13731 352.65554,124.03119 C 352.65554,121.47946 353.32939,121.57162 354.7984,120.10262 C 356.55276,118.34825 354.55346,117.54651 353.01268,118.3169 z "
       id="path5840"
       sodipodi:nodetypes="csssssssc" />
  </g>
</svg>
