<?xml version="1.0" encoding="utf-8"?>
<!-- Generator: Adobe Illustrator 16.0.0, SVG Export Plug-In . SVG Version: 6.00 Build 0)  -->
<!DOCTYPE svg PUBLIC "-//W3C//DTD SVG 1.1//EN" "http://www.w3.org/Graphics/SVG/1.1/DTD/svg11.dtd">
<svg version="1.1" xmlns="http://www.w3.org/2000/svg" xmlns:xlink="http://www.w3.org/1999/xlink" x="0px" y="0px" width="85px"
	 height="85px" viewBox="0 0 85 85" enable-background="new 0 0 85 85" xml:space="preserve">
<g id="Layer_1">
	<g>
		<path fill="#F07D00" d="M64.114,27.479c-0.765-1.976-1.947-3.674-3.547-5.093c-1.599-1.418-3.628-2.523-6.084-3.313
			c-2.458-0.79-5.367-1.186-8.729-1.186H32.566v7.254v43.18h7.246V50.568h5.942c3.269,0,6.12-0.406,8.554-1.22
			c2.435-0.814,4.463-1.954,6.086-3.419c1.622-1.464,2.838-3.214,3.651-5.248c0.811-2.036,1.216-4.273,1.216-6.716
			C65.262,31.617,64.88,29.455,64.114,27.479z M56.364,37.82c-0.417,1.15-1.042,2.127-1.877,2.929
			c-0.835,0.803-1.89,1.419-3.165,1.848c-1.275,0.432-2.771,0.645-4.485,0.645h-7.024V25.142h7.024c1.715,0,3.21,0.204,4.485,0.61
			c1.275,0.408,2.33,0.995,3.165,1.763c0.835,0.767,1.46,1.696,1.877,2.79c0.419,1.093,0.626,2.313,0.626,3.661
			C56.99,35.385,56.783,36.669,56.364,37.82z"/>
		<polygon fill="#F07D00" points="24.342,53.952 31.569,52.834 31.569,30.156 20.936,31.801 		"/>
		<polygon fill="#F07D00" points="23.509,55.092 23.357,54.104 21.17,39.878 14.881,42.485 23.416,63.2 31.569,59.819 
			31.569,53.846 24.494,54.94 		"/>
	</g>
</g>
<g id="Layer_2">
	<path fill="#F07D00" d="M42.5,5.997c20.129,0,36.503,16.375,36.503,36.503c0,20.127-16.374,36.502-36.503,36.502
		c-20.127,0-36.503-16.375-36.503-36.502C5.997,22.372,22.373,5.997,42.5,5.997 M42.5,0C19.028,0,0,19.027,0,42.5
		C0,65.971,19.028,85,42.5,85C65.973,85,85,65.971,85,42.5C85,19.027,65.973,0,42.5,0L42.5,0z"/>
</g>
</svg>
