<?xml version="1.0" encoding="utf-8"?>
<!-- Generator: Adobe Illustrator 16.0.0, SVG Export Plug-In . SVG Version: 6.00 Build 0)  -->
<!DOCTYPE svg PUBLIC "-//W3C//DTD SVG 1.1//EN" "http://www.w3.org/Graphics/SVG/1.1/DTD/svg11.dtd">
<svg version="1.1" xmlns="http://www.w3.org/2000/svg" xmlns:xlink="http://www.w3.org/1999/xlink" x="0px" y="0px" width="85px"
	 height="85px" viewBox="0 0 85 85" enable-background="new 0 0 85 85" xml:space="preserve">
<g id="Layer_1">
	<g>
		<path fill="#F07D00" d="M37.794,55.364l-0.729,1.021c-0.325-0.468-0.807-0.761-1.246-0.761c-0.785,0-1.381,0.736-1.381,1.698
			c0,0.978,0.596,1.723,1.381,1.723c0.418,0,0.899-0.268,1.246-0.686l0.736,0.92c-0.531,0.644-1.316,1.07-2.046,1.07
			c-1.494,0-2.605-1.296-2.605-3.01c0-1.689,1.14-2.96,2.647-2.96C36.533,54.378,37.299,54.763,37.794,55.364z"/>
		<path fill="#F07D00" d="M41.688,60.281v-2.274h-2.053v2.274h-1.26v-5.854h1.26v2.408h2.053v-2.408h1.261v5.854H41.688z"/>
		<path fill="#F07D00" d="M45.2,55.599v1.162h2.364v1.171H45.2v1.179h2.697v1.171h-3.958v-5.854h3.881v1.171H45.2z M45.582,53.918
			l-0.92-0.945l1.104-0.46l0.751,1.405H45.582z"/>
		<path fill="#F07D00" d="M53.994,61.017c-0.383,0.401-0.941,0.644-1.438,0.644c-0.687,0-1.268-0.502-1.593-1.313
			c-1.479-0.059-2.577-1.321-2.577-3.002c0-1.706,1.146-2.968,2.676-2.968c1.537,0,2.684,1.271,2.684,2.968
			c0,1.296-0.658,2.358-1.649,2.793c0.17,0.251,0.375,0.401,0.602,0.401s0.546-0.167,0.85-0.443L53.994,61.017z M51.077,59.102
			c0.765,0,1.374-0.761,1.374-1.748c0-0.986-0.609-1.731-1.374-1.731s-1.401,0.745-1.401,1.731
			C49.676,58.341,50.319,59.102,51.077,59.102z"/>
		<path fill="#F07D00" d="M58.908,57.823c0,1.547-0.871,2.525-2.259,2.525c-1.395,0-2.286-0.979-2.286-2.525v-3.395h1.26v3.395
			c0,0.794,0.432,1.279,1.033,1.279c0.596,0,0.999-0.485,0.999-1.279v-3.395h1.253V57.823z"/>
		<path fill="#F07D00" d="M61.075,55.599v1.162h2.364v1.171h-2.364v1.179h2.697v1.171h-3.958v-5.854h3.881v1.171H61.075z"/>
		<path fill="#F07D00" d="M35.48,62.783c1.193,0,1.88,0.736,1.88,2.041c0,1.372-0.687,2.166-1.88,2.166h-0.848v1.647h-1.187v-5.854
			H35.48z M34.633,65.819h0.787c0.521,0,0.82-0.326,0.82-0.945c0-0.61-0.3-0.92-0.82-0.92h-0.787V65.819z"/>
		<path fill="#F07D00" d="M38.692,67.558l-0.341,1.079h-1.22l2.014-5.854h1.22l1.968,5.854h-1.268l-0.333-1.079H38.692z
			 M39.719,64.264l-0.68,2.166h1.347L39.719,64.264z"/>
		<path fill="#F07D00" d="M44.883,66.989H44.85h-0.9v1.647h-1.187v-5.854h2.087c1.233,0,1.94,0.736,1.94,2.041
			c0,0.895-0.3,1.539-0.847,1.881l0.98,1.932h-1.348L44.883,66.989z M44.85,65.819c0.514,0,0.813-0.326,0.813-0.945
			c0-0.61-0.3-0.92-0.813-0.92h-0.9v1.865H44.85z"/>
		<path fill="#F07D00" d="M49.395,66.337l-0.62,0.861v1.438h-1.187v-5.854h1.187v2.534l1.787-2.534h1.374l-1.733,2.425l1.847,3.428
			h-1.42L49.395,66.337z"/>
		<path fill="#F07D00" d="M52.565,68.637v-5.854h1.187v5.854H52.565z"/>
		<path fill="#F07D00" d="M57.945,68.637l-2.147-3.604v3.604h-1.113v-5.854h1.047l2.153,3.612v-3.612h1.107v5.854H57.945z"/>
		<path fill="#F07D00" d="M64.051,65.66v2.283c-0.501,0.443-1.287,0.761-1.94,0.761c-1.421,0-2.494-1.288-2.494-2.994
			c0-1.697,1.101-2.977,2.574-2.977c0.693,0,1.427,0.334,1.906,0.87l-0.666,1.012c-0.341-0.393-0.813-0.636-1.247-0.636
			c-0.768,0-1.354,0.753-1.354,1.731c0,0.995,0.593,1.748,1.366,1.748c0.24,0,0.547-0.108,0.827-0.284V65.66H64.051z"/>
	</g>
	<path fill="#F07D00" d="M44.21,47.795c2.435-0.814,4.462-1.953,6.086-3.419c1.621-1.464,2.839-3.213,3.651-5.248
		c0.811-2.035,1.216-4.273,1.216-6.714c0-2.35-0.382-4.512-1.147-6.487c-0.765-1.977-1.947-3.675-3.547-5.093
		c-1.6-1.419-3.628-2.523-6.085-3.313c-2.458-0.791-5.367-1.187-8.728-1.187H22.467v7.254v43.18h7.246V49.016h5.943
		C38.925,49.016,41.775,48.609,44.21,47.795z M29.713,23.589h7.025c1.715,0,3.211,0.204,4.485,0.61
		c1.274,0.408,2.33,0.996,3.165,1.763c0.835,0.767,1.461,1.697,1.877,2.79c0.418,1.093,0.626,2.313,0.626,3.663
		c0,1.418-0.208,2.703-0.626,3.854c-0.416,1.151-1.042,2.126-1.877,2.929c-0.835,0.802-1.891,1.419-3.165,1.848
		c-1.274,0.431-2.771,0.645-4.485,0.645h-7.025V23.589z"/>
</g>
<g id="Layer_2">
	<path fill="#F07D00" d="M42.5,5.997c20.129,0,36.503,16.375,36.503,36.503c0,20.127-16.374,36.502-36.503,36.502
		c-20.127,0-36.503-16.375-36.503-36.502C5.997,22.372,22.373,5.997,42.5,5.997 M42.5,0C19.028,0,0,19.027,0,42.5
		C0,65.971,19.028,85,42.5,85C65.973,85,85,65.971,85,42.5C85,19.027,65.973,0,42.5,0L42.5,0z"/>
</g>
</svg>
