<?xml version="1.0" encoding="utf-8"?>
<!-- Generator: Adobe Illustrator 16.0.0, SVG Export Plug-In . SVG Version: 6.00 Build 0)  -->
<!DOCTYPE svg PUBLIC "-//W3C//DTD SVG 1.1//EN" "http://www.w3.org/Graphics/SVG/1.1/DTD/svg11.dtd">
<svg version="1.1" xmlns="http://www.w3.org/2000/svg" xmlns:xlink="http://www.w3.org/1999/xlink" x="0px" y="0px" width="85px"
	 height="85px" viewBox="0 0 85 85" enable-background="new 0 0 85 85" xml:space="preserve">
<g id="Layer_1">
	<g>
		<path fill="#F07D00" d="M37.364,54.014c1.558,0,2.634,1.188,2.634,2.927c0,1.731-1.091,2.927-2.684,2.927h-2.082v-5.854H37.364z
			 M36.493,58.68h0.899c0.771,0,1.324-0.702,1.324-1.731c0-1.037-0.581-1.748-1.381-1.748h-0.843V58.68z"/>
		<path fill="#F07D00" d="M41.924,55.185v1.162h2.365v1.171h-2.365v1.179h2.697v1.171h-3.957v-5.854h3.879v1.171H41.924z
			 M42.943,53.504h-0.935l0.751-1.405l1.104,0.46L42.943,53.504z"/>
		<path fill="#F07D00" d="M47.596,54.014c1.268,0,1.996,0.736,1.996,2.041c0,1.372-0.729,2.166-1.996,2.166h-0.899v1.647h-1.261
			v-5.854H47.596z M46.696,57.049h0.835c0.553,0,0.871-0.326,0.871-0.945c0-0.61-0.318-0.92-0.871-0.92h-0.835V57.049z"/>
		<path fill="#F07D00" d="M55.284,56.932c0,1.706-1.146,3.002-2.683,3.002c-1.529,0-2.677-1.288-2.677-3.002
			c0-1.706,1.147-2.968,2.677-2.968C54.138,53.964,55.284,55.235,55.284,56.932z M51.213,56.94c0,0.987,0.645,1.748,1.402,1.748
			c0.765,0,1.373-0.761,1.373-1.748c0-0.986-0.608-1.731-1.373-1.731S51.213,55.954,51.213,56.94z"/>
		<path fill="#F07D00" d="M59.81,54.599l-0.475,1.163c-0.524-0.36-1.183-0.61-1.586-0.61c-0.325,0-0.545,0.142-0.545,0.426
			c0,1.012,2.619,0.435,2.619,2.55c0,1.171-0.878,1.79-1.982,1.79c-0.828,0-1.678-0.368-2.266-0.937l0.489-1.146
			c0.51,0.527,1.273,0.878,1.791,0.878c0.396,0,0.645-0.176,0.645-0.51c0-1.037-2.62-0.418-2.62-2.492
			c0-1.079,0.786-1.764,1.976-1.764C58.57,53.947,59.3,54.206,59.81,54.599z"/>
		<path fill="#F07D00" d="M61.771,55.185v1.162h2.364v1.171h-2.364v1.179h2.697v1.171H60.51v-5.854h3.881v1.171H61.771z"/>
		<path fill="#F07D00" d="M36.285,63.54v1.162h2.084v1.171h-2.084v1.179h2.378v1.171h-3.489v-5.854h3.42v1.171H36.285z"/>
		<path fill="#F07D00" d="M43.485,68.223h-1.329l-0.942-1.865l-0.942,1.865h-1.292l1.561-2.994l-1.461-2.86h1.292l0.843,1.706
			l0.843-1.706h1.304l-1.441,2.793L43.485,68.223z"/>
		<path fill="#F07D00" d="M45.874,62.369c1.117,0,1.761,0.736,1.761,2.041c0,1.372-0.644,2.166-1.761,2.166h-0.792v1.647h-1.111
			v-5.854H45.874z M45.082,65.405h0.736c0.486,0,0.768-0.326,0.768-0.945c0-0.61-0.281-0.92-0.768-0.92h-0.736V65.405z"/>
		<path fill="#F07D00" d="M50.204,66.575h-0.031H49.33v1.647h-1.111v-5.854h1.954c1.154,0,1.815,0.736,1.815,2.041
			c0,0.895-0.28,1.539-0.792,1.881l0.917,1.932h-1.261L50.204,66.575z M50.173,65.405c0.48,0,0.761-0.326,0.761-0.945
			c0-0.61-0.28-0.92-0.761-0.92H49.33v1.865H50.173z"/>
		<path fill="#F07D00" d="M53.854,63.54v1.162h2.084v1.171h-2.084v1.179h2.378v1.171h-3.489v-5.854h3.42v1.171H53.854z"/>
		<path fill="#F07D00" d="M60.354,62.955l-0.418,1.163c-0.462-0.36-1.042-0.61-1.397-0.61c-0.287,0-0.481,0.142-0.481,0.426
			c0,1.012,2.31,0.435,2.31,2.55c0,1.171-0.773,1.79-1.747,1.79c-0.73,0-1.479-0.368-1.997-0.937l0.431-1.146
			c0.449,0.527,1.123,0.878,1.578,0.878c0.35,0,0.568-0.176,0.568-0.51c0-1.037-2.31-0.418-2.31-2.492
			c0-1.079,0.693-1.764,1.741-1.764C59.263,62.303,59.905,62.562,60.354,62.955z"/>
		<path fill="#F07D00" d="M64.378,62.955l-0.418,1.163c-0.462-0.36-1.042-0.61-1.397-0.61c-0.287,0-0.481,0.142-0.481,0.426
			c0,1.012,2.31,0.435,2.31,2.55c0,1.171-0.773,1.79-1.747,1.79c-0.73,0-1.479-0.368-1.997-0.937l0.431-1.146
			c0.449,0.527,1.123,0.878,1.578,0.878c0.35,0,0.568-0.176,0.568-0.51c0-1.037-2.31-0.418-2.31-2.492
			c0-1.079,0.693-1.764,1.741-1.764C63.286,62.303,63.929,62.562,64.378,62.955z"/>
	</g>
	<path fill="#F07D00" d="M43.954,47.796c2.435-0.814,4.462-1.954,6.086-3.419c1.621-1.464,2.839-3.214,3.651-5.248
		c0.811-2.036,1.216-4.273,1.216-6.715c0-2.349-0.382-4.511-1.147-6.486c-0.765-1.977-1.947-3.675-3.547-5.092
		c-1.6-1.419-3.628-2.524-6.085-3.314c-2.458-0.79-5.367-1.186-8.728-1.186H22.211v7.254v43.18h7.246V49.016H35.4
		C38.669,49.016,41.52,48.61,43.954,47.796z M29.457,23.589h7.025c1.715,0,3.211,0.204,4.485,0.61
		c1.274,0.408,2.33,0.995,3.165,1.763c0.835,0.767,1.46,1.696,1.877,2.79c0.418,1.093,0.626,2.313,0.626,3.662
		c0,1.419-0.208,2.704-0.626,3.854c-0.417,1.151-1.042,2.127-1.877,2.929c-0.835,0.803-1.891,1.419-3.165,1.848
		c-1.274,0.433-2.771,0.646-4.485,0.646h-7.025V23.589z"/>
</g>
<g id="Layer_2">
	<path fill="#F07D00" d="M42.5,5.997c20.129,0,36.503,16.375,36.503,36.503c0,20.127-16.374,36.502-36.503,36.502
		c-20.127,0-36.503-16.375-36.503-36.502C5.997,22.372,22.373,5.997,42.5,5.997 M42.5,0C19.028,0,0,19.027,0,42.5
		C0,65.971,19.028,85,42.5,85C65.973,85,85,65.971,85,42.5C85,19.027,65.973,0,42.5,0L42.5,0z"/>
</g>
</svg>
