<?xml version="1.0" encoding="utf-8"?>
<!-- Generator: Adobe Illustrator 16.0.0, SVG Export Plug-In . SVG Version: 6.00 Build 0)  -->
<!DOCTYPE svg PUBLIC "-//W3C//DTD SVG 1.1//EN" "http://www.w3.org/Graphics/SVG/1.1/DTD/svg11.dtd">
<svg version="1.1" xmlns="http://www.w3.org/2000/svg" xmlns:xlink="http://www.w3.org/1999/xlink" x="0px" y="0px" width="85px"
	 height="85px" viewBox="0 0 85 85" enable-background="new 0 0 85 85" xml:space="preserve">
<g id="Layer_1">
	<g>
		<path fill="#F07D00" d="M19.452,54.141l0.008-5.705c0-0.654,0.202-1.093,0.506-1.386l6.04-5.864
			c1.152-1.116,1.151-2.925-0.023-4.063l-7.686,7.43C17.459,45.37,17,46.695,17,48.577l0.006,5.706c0,2.556,0.915,3.654,1.806,4.177
			c0.97,0.567,2.104,0.579,2.773,0.579h17.322v-2.902l-16.845-0.001C21.104,56.135,19.452,55.996,19.452,54.141z"/>
		<path fill="#F07D00" d="M30.076,52.49c-0.266,0.256-0.43,0.612-0.43,1.004c0,0.393,0.164,0.748,0.43,1.005
			c0.265,0.256,0.632,0.416,1.037,0.416h8.964v-1.42v-1.42h-8.964C30.708,52.074,30.341,52.233,30.076,52.49z"/>
		<path fill="#F07D00" d="M66.097,25.33H30.631c-1.877,0-3.413,1.537-3.413,3.416v17.007h2.257v-2.408h37.777v1.251
			c0,0.626-0.529,1.157-1.155,1.157h-26.02v2.252h-8.964H30.46c0.058,0.002,0.113,0.008,0.171,0.008h0.394
			c-0.368,0.022-0.703,0.17-0.948,0.408c-0.266,0.256-0.43,0.611-0.43,1.003c0,0.393,0.164,0.748,0.43,1.005
			c0.265,0.256,0.632,0.416,1.037,0.416h8.964v-1.42v-1.411h26.02c1.876,0,3.413-1.538,3.413-3.417v-15.85
			C69.51,26.867,67.973,25.33,66.097,25.33z M29.475,40.469V28.746c0-0.626,0.53-1.156,1.156-1.156h35.466
			c0.626,0,1.155,0.53,1.155,1.156v11.723H29.475z"/>
		<path fill="#F07D00" d="M63.759,33.301h-3.828l-2.309-4.174h-2.686l2.31,4.174h-3.724l-0.604-1.09H51.47l1.079,1.951l-1.079,1.951
			h1.449l0.604-1.09h3.724l-2.31,4.175h2.686l2.309-4.175h3.828c0.413,0,0.762-0.297,0.843-0.687
			c0.012-0.057,0.018-0.114,0.018-0.174c0-0.059-0.006-0.117-0.018-0.173C64.521,33.598,64.172,33.301,63.759,33.301z"/>
	</g>
</g>
<g id="Layer_2">
	<path fill="#F07D00" d="M42.5,5.997c20.129,0,36.503,16.375,36.503,36.503c0,20.127-16.374,36.502-36.503,36.502
		c-20.127,0-36.503-16.375-36.503-36.502C5.997,22.372,22.373,5.997,42.5,5.997 M42.5,0C19.028,0,0,19.027,0,42.5
		C0,65.971,19.028,85,42.5,85C65.973,85,85,65.971,85,42.5C85,19.027,65.973,0,42.5,0L42.5,0z"/>
</g>
</svg>
