<?xml version="1.0" encoding="utf-8"?>
<!-- Generator: Adobe Illustrator 16.0.0, SVG Export Plug-In . SVG Version: 6.00 Build 0)  -->
<!DOCTYPE svg PUBLIC "-//W3C//DTD SVG 1.1//EN" "http://www.w3.org/Graphics/SVG/1.1/DTD/svg11.dtd">
<svg version="1.1" xmlns="http://www.w3.org/2000/svg" xmlns:xlink="http://www.w3.org/1999/xlink" x="0px" y="0px" width="214px"
	 height="85px" viewBox="0 0 214 85" enable-background="new 0 0 214 85" xml:space="preserve">
<g id="Layer_1">
	<g>
		<path fill="#F07D00" d="M53.639,37.788l-4.811,0.05v-7.569h15.934l-0.05-5.314H43.367v18.549c2.355-0.251,7.115-0.452,9.219-0.452
			c4.511,0,7.266,2.206,7.266,5.766c0,3.96-2.755,6.316-7.314,6.316c-3.157,0-6.664-1.354-9.471-3.71l-2.354,4.813
			c3.457,2.406,8.317,4.01,12.477,4.01c7.866,0,12.976-4.662,12.976-11.781C66.164,42.3,61.255,37.788,53.639,37.788z"/>
		<path fill="#F07D00" d="M35.492,27.945c-1.119-0.991-2.538-1.762-4.259-2.313c-1.72-0.552-3.756-0.829-6.108-0.829h-9.23v5.065
			v30.146h5.072V47.62h4.158c2.288,0,4.283-0.283,5.988-0.851c1.702-0.569,3.122-1.365,4.258-2.388
			c1.135-1.022,1.987-2.244,2.557-3.664c0.566-1.421,0.851-2.983,0.851-4.688c0-1.64-0.268-3.15-0.804-4.529
			C37.439,30.12,36.612,28.934,35.492,27.945z M32.551,38.72c-0.292,0.804-0.729,1.485-1.314,2.046
			c-0.584,0.56-1.322,0.991-2.214,1.289c-0.893,0.302-1.939,0.451-3.14,0.451h-4.916V29.868h4.916c1.2,0,2.247,0.143,3.14,0.426
			c0.892,0.285,1.63,0.695,2.214,1.23c0.585,0.536,1.022,1.185,1.314,1.947c0.293,0.764,0.438,1.616,0.438,2.558
			C32.989,37.019,32.844,37.916,32.551,38.72z"/>
	</g>
	<g>
		<path fill="#F07D00" d="M109.231,44.048v9.909h-6.425v-9.909h-9.844v-6.429h9.844v-9.908h6.425v9.908h9.903v6.429H109.231z"/>
	</g>
	<g>
		<polygon fill="#F07D00" points="164.204,30.218 167.672,30.218 167.672,60.047 173.584,60.047 173.584,24.954 164.204,24.954 		
			"/>
		<path fill="#F07D00" d="M188.616,24.804c-8.369,0-12.988,6.316-12.988,17.697c0,11.379,4.619,17.696,12.988,17.696
			c8.325,0,12.945-6.316,12.945-17.696C201.562,31.121,196.941,24.804,188.616,24.804z M188.616,54.535
			c-5.143,0-7.714-3.161-7.714-12.034c0-8.924,2.571-12.036,7.714-12.036c5.101,0,7.672,3.112,7.672,12.036
			C196.288,51.374,193.717,54.535,188.616,54.535z"/>
		<path fill="#F07D00" d="M160.186,27.945c-1.12-0.991-2.539-1.762-4.26-2.313c-1.72-0.552-3.756-0.829-6.107-0.829h-9.231v5.065
			v30.146h5.072V47.62h4.159c2.287,0,4.282-0.283,5.986-0.851c1.703-0.569,3.123-1.365,4.259-2.388
			c1.136-1.022,1.987-2.244,2.556-3.664c0.567-1.421,0.852-2.983,0.852-4.688c0-1.64-0.268-3.15-0.804-4.529
			C162.132,30.12,161.305,28.935,160.186,27.945z M157.243,38.72c-0.292,0.804-0.729,1.485-1.314,2.046
			c-0.583,0.56-1.323,0.991-2.214,1.289c-0.893,0.302-1.939,0.451-3.14,0.451h-4.916V29.868h4.916c1.2,0,2.247,0.143,3.14,0.426
			c0.891,0.285,1.631,0.695,2.214,1.23c0.585,0.536,1.022,1.185,1.314,1.947c0.292,0.764,0.438,1.616,0.438,2.558
			C157.682,37.019,157.535,37.916,157.243,38.72z"/>
	</g>
	<path fill="#F07D00" d="M42.5,5.997c20.129,0,36.503,16.375,36.503,36.503c0,20.127-16.374,36.502-36.503,36.502
		c-20.127,0-36.503-16.375-36.503-36.502C5.997,22.372,22.373,5.997,42.5,5.997 M42.5,0C19.028,0,0,19.028,0,42.5
		C0,65.971,19.028,85,42.5,85C65.973,85,85,65.971,85,42.5C85,19.028,65.973,0,42.5,0L42.5,0z"/>
	<path fill="#F07D00" d="M171.5,5.997c20.129,0,36.503,16.375,36.503,36.503c0,20.127-16.374,36.502-36.503,36.502
		c-20.127,0-36.503-16.375-36.503-36.502C134.997,22.372,151.373,5.997,171.5,5.997 M171.5,0C148.028,0,129,19.028,129,42.5
		c0,23.471,19.028,42.5,42.5,42.5c23.473,0,42.5-19.029,42.5-42.5C214,19.028,194.973,0,171.5,0L171.5,0z"/>
</g>
<g id="Layer_2">
</g>
</svg>
