<?xml version="1.0" encoding="utf-8"?>
<!-- Generator: Adobe Illustrator 16.0.0, SVG Export Plug-In . SVG Version: 6.00 Build 0)  -->
<!DOCTYPE svg PUBLIC "-//W3C//DTD SVG 1.1//EN" "http://www.w3.org/Graphics/SVG/1.1/DTD/svg11.dtd">
<svg version="1.1" id="Layer_1" xmlns="http://www.w3.org/2000/svg" xmlns:xlink="http://www.w3.org/1999/xlink" x="0px" y="0px"
	 width="63px" height="43px" viewBox="0 0 63 43" enable-background="new 0 0 63 43" xml:space="preserve">
<g>
	<g>
		<g>
			<g>
				<path d="M3.097,43.082c-1.636,0-2.974-1.338-2.974-2.974V2.974C0.123,1.338,1.461,0,3.097,0h56.93C61.662,0,63,1.338,63,2.974
					v37.135c0,1.636-1.338,2.974-2.974,2.974H3.097z"/>
			</g>
		</g>
	</g>
	<g>
		<path fill="#FFFFFF" d="M62.877,32.062c-0.458,0.606-1.266,0.901-2.373,0.901h-3.411v-1.614h3.411
			c0.328,0,0.576-0.054,0.687-0.167c0.109-0.114,0.22-0.284,0.22-0.483c0-0.224-0.11-0.455-0.22-0.539
			c-0.11-0.113-0.304-0.167-0.632-0.167c-1.623-0.059-3.686,0.054-3.686-2.35c0-1.079,0.688-2.268,2.529-2.268h3.475 M62.867,23.847
			h-3.245c-0.962,0-1.704,0.285-2.229,0.651v-0.651h-4.784c-0.797,0-1.677,0.228-2.172,0.651v-0.651h-8.58v0.651
			c-0.743-0.539-1.842-0.651-2.419-0.651h-5.694v0.651c-0.521-0.539-1.731-0.651-2.475-0.651H24.89l-1.484,1.643l-1.349-1.643H12.57
			v10.646h9.323l1.513-1.642l1.375,1.642h5.802v-2.49h0.522c0.797,0,1.678,0,2.476-0.399v2.889h4.759v-2.774h0.246
			c0.273,0,0.33,0,0.33,0.339v2.436h14.438c0.88,0,1.843-0.228,2.365-0.651v0.651h4.593c0.935,0,1.897-0.172,2.557-0.483
			 M31.215,30.417h-2.228v2.546h-3.41l-2.171-2.488l-2.255,2.488h-7.013v-7.588h7.123l2.146,2.493l2.282-2.493h5.638
			c1.374,0,2.942,0.428,2.942,2.493C34.268,29.993,32.73,30.417,31.215,30.417z M41.857,30.107c0.222,0.368,0.274,0.706,0.274,1.383
			v1.473h-1.759v-0.905c0-0.511,0-1.16-0.302-1.528c-0.276-0.285-0.633-0.339-1.266-0.339h-1.896v2.773H35.12v-7.588h4.041
			c0.91,0,1.597,0.058,2.174,0.368c0.578,0.342,0.88,0.821,0.88,1.702c0,1.189-0.771,1.84-1.265,2.01
			C41.39,29.594,41.692,29.878,41.857,30.107z M49.118,26.963h-4.153v1.386h4.071v1.528h-4.071v1.529h4.153v1.556h-5.887v-7.588
			h5.887V26.963z M53.601,32.963h-3.41v-1.614h3.41c0.328,0,0.521-0.054,0.688-0.167c0.108-0.114,0.219-0.284,0.219-0.483
			c0-0.224-0.11-0.455-0.219-0.539c-0.11-0.113-0.303-0.167-0.632-0.167c-1.624-0.059-3.686,0.054-3.686-2.35
			c0-1.079,0.631-2.268,2.529-2.268h3.521v1.616h-3.246c-0.329,0-0.55,0-0.687,0.113c-0.218,0.17-0.275,0.34-0.275,0.594
			c0,0.282,0.164,0.453,0.357,0.537c0.22,0.057,0.439,0.115,0.688,0.115h0.964c0.989,0,1.622,0.226,2.062,0.596
			c0.302,0.393,0.522,0.875,0.522,1.642C56.405,32.198,55.387,32.963,53.601,32.963z"/>
		<path fill="#FFFFFF" d="M32.369,15.381c0.22-0.083,0.33-0.367,0.33-0.679c0-0.34-0.11-0.565-0.33-0.708
			c-0.219-0.112-0.577-0.112-0.881-0.112h-2.172v1.671h2.172C31.846,15.554,32.095,15.554,32.369,15.381z"/>
		<path fill="#FFFFFF" d="M58.989,27.104c-0.165,0.17-0.274,0.34-0.274,0.594c0,0.282,0.165,0.453,0.356,0.537
			c0.223,0.057,0.442,0.115,0.689,0.115h0.962c0.99,0,1.623,0.226,2.063,0.596c0.033,0.043,0.061,0.092,0.092,0.137v-2.092h-3.199
			C59.347,26.991,59.128,26.991,58.989,27.104z"/>
		<path fill="#FFFFFF" d="M39.904,27.104c-0.22-0.141-0.523-0.141-0.852-0.141h-2.144v1.725l2.144-0.055
			c0.328,0,0.578,0,0.852-0.114c0.223-0.17,0.358-0.422,0.358-0.765C40.263,27.444,40.127,27.217,39.904,27.104z"/>
		<polygon fill="#FFFFFF" points="46.45,13.599 45.24,16.603 47.659,16.603 		"/>
		<polygon fill="#FFFFFF" points="15.87,26.963 15.87,28.35 19.775,28.35 19.775,29.878 15.87,29.878 15.87,31.407 20.242,31.407 
			22.251,29.171 20.299,26.963 		"/>
		<path fill="#FFFFFF" d="M3.082,21.415l0.688-1.729h1.512l0.633,1.729h5.967v-1.304l0.521,1.304h3.108l0.522-1.361v1.361h14.767
			v-2.834h0.249c0.219,0,0.274,0.058,0.274,0.397v2.437h7.645v-0.652c0.633,0.337,1.567,0.652,2.832,0.652h3.218l0.688-1.729h1.514
			l0.687,1.729h6.161v-1.616l0.963,1.616h4.948V10.796h-4.894v1.244l-0.742-1.244h-5.005v1.244l-0.634-1.244h-6.792
			c-1.155,0-2.173,0.139-2.943,0.595v-0.595h-4.702v0.595c-0.523-0.456-1.209-0.595-2.007-0.595H15.154l-1.181,2.693l-1.212-2.693
			H7.4v1.244l-0.633-1.244H2.176l-2.146,5.041V6.707H0v31h0.029V21.415H3.082z M39.328,13.175c0.522-0.594,1.484-0.879,2.695-0.879
			H43.7v1.641h-1.677c-0.634,0-1.02,0.116-1.378,0.426c-0.328,0.34-0.466,0.936-0.466,1.729c0,0.82,0.138,1.414,0.466,1.812
			c0.249,0.252,0.744,0.366,1.212,0.366h0.798l2.531-5.974h2.61l2.971,7.161v-7.161h2.724l3.107,5.267v-5.267h1.813v7.588h-2.529
			l-3.328-5.688v5.688H48.98l-0.688-1.67h-3.686l-0.687,1.67h-2.063c-0.854,0-1.953-0.198-2.584-0.849
			c-0.579-0.651-0.908-1.529-0.908-2.888C38.393,15.015,38.53,13.995,39.328,13.175z M35.699,12.296h1.786v7.588h-1.786V12.296z
			 M27.586,12.296h4.042c0.908,0,1.54,0,2.116,0.339c0.578,0.369,0.938,0.854,0.938,1.728c0,1.191-0.771,1.784-1.267,2.009
			c0.386,0.172,0.688,0.427,0.853,0.653c0.275,0.367,0.329,0.708,0.329,1.358v1.5h-1.814v-0.961c0-0.426,0.055-1.076-0.246-1.474
			c-0.275-0.253-0.69-0.309-1.321-0.309h-1.898v2.744h-1.73V12.296z M20.408,12.296h5.913v1.587h-4.127v1.359h4.071v1.557h-4.071
			v1.528h4.127v1.557h-5.913V12.296z M3.247,12.296h2.612l3.027,7.161v-7.161h2.831l2.31,5.153l2.173-5.153h2.887v7.588h-1.786
			v-5.947l-2.586,5.947h-1.513l-2.585-5.947v5.947H7.015l-0.66-1.67H2.644l-0.662,1.67H0.085L3.247,12.296z"/>
		<path fill="#FFFFFF" d="M31.325,26.963h-2.338v1.925h2.338c0.634,0,1.044-0.369,1.044-1.021
			C32.369,27.217,31.959,26.963,31.325,26.963z"/>
		<polygon fill="#FFFFFF" points="27.255,32.313 27.255,26.198 24.532,29.171 		"/>
		<polygon fill="#FFFFFF" points="4.513,13.599 3.275,16.603 5.722,16.603 		"/>
	</g>
</g>
</svg>
