<?xml version="1.0" encoding="utf-8"?>
<!-- Generator: Adobe Illustrator 16.0.0, SVG Export Plug-In . SVG Version: 6.00 Build 0)  -->
<!DOCTYPE svg PUBLIC "-//W3C//DTD SVG 1.1//EN" "http://www.w3.org/Graphics/SVG/1.1/DTD/svg11.dtd">
<svg version="1.1" id="Layer_1" xmlns="http://www.w3.org/2000/svg" xmlns:xlink="http://www.w3.org/1999/xlink" x="0px" y="0px"
	 width="64px" height="43px" viewBox="0 0 64 43" enable-background="new 0 0 64 43" xml:space="preserve">
<g>
	<path d="M2.997,43C1.349,43,0,41.651,0,40.003V2.997C0,1.349,1.349,0,2.997,0h58.006C62.651,0,64,1.349,64,2.997v37.006
		C64,41.651,62.651,43,61.003,43H2.997z"/>
	<path fill-rule="evenodd" clip-rule="evenodd" fill="#FFFFFF" d="M62.913,38.917c0,1.648-1.349,2.997-2.997,2.997H4.084
		c-1.648,0-2.997-1.349-2.997-2.997V4.082c0-1.648,1.349-2.997,2.997-2.997h55.831c1.648,0,2.997,1.349,2.997,2.997V38.917z"/>
	<g>
		<path d="M57.125,22.165c0-7.968-6.474-14.429-14.458-14.429c-3.465,0-6.618,1.21-9.108,3.24c1.899,1.829,3.349,4.121,4.127,6.712
			h-1.201c-0.752-2.305-2.075-4.335-3.794-5.967c-1.708,1.627-3.019,3.667-3.769,5.959H27.72c0.775-2.575,2.199-4.871,4.084-6.694
			c-2.483-2.009-5.622-3.25-9.067-3.25c-7.984,0-14.458,6.461-14.458,14.429c0,7.971,6.473,14.432,14.458,14.432
			c3.445,0,6.584-1.241,9.067-3.25c-1.885-1.824-3.309-4.12-4.084-6.695h1.202c0.75,2.293,2.061,4.333,3.769,5.958
			c1.719-1.631,3.042-3.663,3.794-5.965h1.201c-0.778,2.59-2.228,4.883-4.127,6.712c2.49,2.029,5.643,3.24,9.108,3.24
			C50.651,36.596,57.125,30.135,57.125,22.165L57.125,22.165z"/>
		<path fill="#FFFFFF" d="M46.499,25.545l0.999-5.338h1.262l0.132,0.525c0.225-0.263,0.659-0.525,1.394-0.525l-0.396,1.391
			c-0.358,0-1.036-0.094-1.469,1.503l-0.452,2.446h-1.469V25.545z"/>
		<path fill="#FFFFFF" d="M27.154,18.849h1.455l-0.298,1.415h0.783l-0.261,1.154h-0.746l-0.411,2.158
			c-0.075,0.411-0.038,0.782,0.802,0.653l-0.094,1.08c-0.317,0.203-0.746,0.259-1.082,0.259s-1.436-0.205-1.156-1.655L27.154,18.849
			L27.154,18.849z"/>
		<path fill="#FFFFFF" d="M33.458,23.168c0.168-0.857,0.56-2.979-1.995-2.979c-2.35,0-2.649,2.327-2.705,2.662
			c-0.056,0.335-0.093,2.699,2.424,2.699c0.616,0.019,1.511-0.056,1.865-0.242l0.224-1.098c-0.224,0.056-1.063,0.13-1.642,0.13
			c-0.578,0-1.51,0.038-1.343-1.172H33.458L33.458,23.168z"/>
		<path fill="#FFFFFF" d="M25.773,21.455l0.335-1.08c-0.689-0.26-1.23-0.205-1.436-0.205s-1.952-0.021-2.22,1.266
			c-0.205,0.986,0.157,1.395,0.504,1.545c0.56,0.242,0.877,0.466,1.175,0.615c0.369,0.184,0.302,0.799-0.186,0.799
			c-0.225,0-1.194,0.112-1.922-0.13l-0.205,1.098c0.672,0.186,1.212,0.186,1.716,0.186c0.354,0,2.089,0.094,2.331-1.508
			c0.118-0.78-0.224-1.134-0.504-1.302c-0.28-0.188-0.746-0.447-1.044-0.578c-0.298-0.13-0.522-0.633,0.019-0.781
			C24.673,21.343,25.363,21.343,25.773,21.455L25.773,21.455z"/>
		<polygon fill="#FFFFFF" points="16.337,25.55 17.549,19.11 15.163,19.11 13.39,23.019 13.11,19.11 10.78,19.11 9.53,25.55 
			10.984,25.55 11.879,20.896 12.271,25.55 13.651,25.55 15.684,21.009 14.826,25.55 		"/>
		<path fill="#FFFFFF" d="M17.94,20.358l-0.224,1.152c0.354-0.036,1.306-0.184,1.809-0.167c0.504,0.019,1.063-0.056,0.895,0.745
			c-0.373,0.037-2.984-0.373-3.394,1.861c-0.168,1.099,0.783,1.657,1.529,1.62s0.951-0.13,1.212-0.315l0.187,0.297h1.361
			l0.579-2.904c0.149-0.725,0.391-2.476-2.052-2.476C19.396,20.189,18.892,20.17,17.94,20.358L17.94,20.358z"/>
		<path fill="#FFFFFF" d="M41.514,20.599c-0.374-0.223-0.634-0.26-1.119-0.26c-0.485,0-1.567,0.462-1.772,1.768
			c-0.242,1.544,0.821,2.308,2.313,1.807l0.429,1.302c-0.485,0.222-0.97,0.334-1.772,0.334c-1.511,0-3.152-1.34-2.406-4.058
			c0.55-2.002,2.276-2.737,3.283-2.699c1.194,0.044,1.623,0.446,1.995,0.857L41.514,20.599L41.514,20.599z"/>
		<path fill="#FFFFFF" d="M53.916,20.823c-0.28-0.206-0.448-0.634-1.138-0.634c-0.801,0-2.051-0.148-2.76,2.271
			c-0.474,1.617,0.484,3.09,1.529,3.09c0.484-0.019,0.969-0.223,1.268-0.428l0.187,0.428h1.566l1.269-6.774h-1.53L53.916,20.823
			L53.916,20.823z"/>
		<path fill="#FFFFFF" d="M42.558,20.358l-0.224,1.152c0.355-0.036,1.306-0.184,1.81-0.167c0.504,0.019,1.063-0.056,0.895,0.745
			c-0.373,0.037-2.984-0.373-3.394,1.861c-0.168,1.099,0.783,1.657,1.528,1.62c0.746-0.037,0.951-0.13,1.213-0.315l0.186,0.297
			h1.361l0.578-2.904c0.149-0.725,0.392-2.476-2.051-2.476C44.013,20.189,43.51,20.17,42.558,20.358L42.558,20.358z"/>
		<path d="M30.38,22.2h1.809c0.093-0.521-0.075-0.969-0.653-0.969S30.548,21.529,30.38,22.2L30.38,22.2z"/>
		<path d="M20.179,23.168c-0.242-0.039-0.783-0.187-1.25,0.129c-0.467,0.317-0.597,0.874-0.112,1.061
			c0.467,0.179,1.156-0.128,1.25-0.614L20.179,23.168L20.179,23.168z"/>
		<path d="M53.394,23c0.148-0.484,0.067-1.088-0.094-1.302c-0.447-0.597-1.477-0.125-1.791,1.042
			c-0.205,0.762,0.243,1.339,0.746,1.339C52.797,24.079,53.132,23.651,53.394,23L53.394,23z"/>
		<path d="M44.796,23.168c-0.243-0.039-0.783-0.187-1.25,0.129c-0.466,0.317-0.596,0.874-0.111,1.061
			c0.466,0.179,1.155-0.128,1.249-0.614L44.796,23.168L44.796,23.168z"/>
		<path fill="#FFFFFF" d="M33.5,25.55l0.988-5.286h1.25l0.13,0.52c0.224-0.261,0.653-0.52,1.38-0.52l-0.374,1.396
			c-0.354,0-1.044-0.111-1.473,1.47l-0.448,2.42H33.5L33.5,25.55z"/>
	</g>
</g>
</svg>
