<?xml version="1.0" encoding="utf-8"?>
<!-- Generator: Adobe Illustrator 16.0.0, SVG Export Plug-In . SVG Version: 6.00 Build 0)  -->
<!DOCTYPE svg PUBLIC "-//W3C//DTD SVG 1.1//EN" "http://www.w3.org/Graphics/SVG/1.1/DTD/svg11.dtd">
<svg version="1.1" id="Layer_1" xmlns="http://www.w3.org/2000/svg" xmlns:xlink="http://www.w3.org/1999/xlink" x="0px" y="0px"
	 width="64px" height="43px" viewBox="0 0 64 43" enable-background="new 0 0 64 43" xml:space="preserve">
<g>
	<path d="M2.996,42.957C1.348,42.957,0,41.609,0,39.961V2.996C0,1.348,1.348,0,2.996,0h58.009C62.652,0,64,1.348,64,2.996v36.966
		c0,1.647-1.348,2.996-2.996,2.996H2.996z"/>
	<path fill-rule="evenodd" clip-rule="evenodd" fill="#FFFFFF" d="M62.913,38.877c0,1.647-1.348,2.996-2.996,2.996H4.083
		c-1.647,0-2.996-1.348-2.996-2.996V4.08c0-1.647,1.348-2.996,2.996-2.996h55.834c1.647,0,2.996,1.348,2.996,2.996V38.877z"/>
	<path fill-rule="evenodd" clip-rule="evenodd" fill="#1D1D1B" d="M54.878,16.332c0-2.546-2.069-4.611-4.623-4.615v-0.001H33.41
		v9.239h16.846v-0.006C52.81,20.945,54.878,18.88,54.878,16.332L54.878,16.332z"/>
	<path fill-rule="evenodd" clip-rule="evenodd" fill="#1D1D1B" d="M54.878,26.131c0-2.547-2.069-4.611-4.623-4.615v-0.002H33.41
		v9.24h16.846v-0.006C52.81,30.744,54.878,28.678,54.878,26.131L54.878,26.131z"/>
	<path fill-rule="evenodd" clip-rule="evenodd" fill="#1D1D1B" d="M20.716,21.514v-0.559h12.369v-0.778
		c0-4.639-3.771-8.398-8.422-8.398h-7.861c-4.651,0-8.423,3.76-8.423,8.398v2.239c0,4.639,3.772,8.399,8.423,8.399h7.861
		c4.652,0,8.422-3.761,8.422-8.399v-0.902H20.716L20.716,21.514z"/>
</g>
</svg>
