<?xml version="1.0" encoding="utf-8"?>
<!-- Generator: Adobe Illustrator 16.0.0, SVG Export Plug-In . SVG Version: 6.00 Build 0)  -->
<!DOCTYPE svg PUBLIC "-//W3C//DTD SVG 1.1 Tiny//EN" "http://www.w3.org/Graphics/SVG/1.1/DTD/svg11-tiny.dtd">
<svg version="1.1" baseProfile="tiny" id="Layer_1" xmlns="http://www.w3.org/2000/svg" xmlns:xlink="http://www.w3.org/1999/xlink"
	 x="0px" y="0px" width="648px" height="650px" viewBox="0 0 648 650" xml:space="preserve">
<circle fill="none" stroke="#000000" stroke-width="70" cx="331" cy="318" r="274.775"/>
<path d="M230.511,405.57c41.396,0,76.105-28.977,85.021-67.828h-41.715c-7.642,16.559-24.201,28.023-43.307,28.023
	c-26.43,0-47.765-21.336-47.765-47.765c0-26.43,21.335-47.765,47.765-47.765c19.106,0,35.665,11.464,43.307,27.704h41.715
	c-8.916-38.531-43.625-67.509-85.021-67.509c-48.402,0-87.569,39.168-87.569,87.57S182.109,405.57,230.511,405.57z"/>
<path d="M420.038,405.57c41.396,0,76.105-28.977,85.021-67.828h-41.714c-7.644,16.559-24.202,28.023-43.307,28.023
	c-26.432,0-47.767-21.336-47.767-47.765c0-26.43,21.335-47.765,47.767-47.765c19.104,0,35.663,11.464,43.307,27.704h41.714
	c-8.915-38.531-43.625-67.509-85.021-67.509c-48.402,0-87.569,39.168-87.569,87.57S371.636,405.57,420.038,405.57z"/>
</svg>
