<?xml version="1.0" encoding="utf-8"?>
<!-- Generator: Adobe Illustrator 16.0.0, SVG Export Plug-In . SVG Version: 6.00 Build 0)  -->
<!DOCTYPE svg PUBLIC "-//W3C//DTD SVG 1.1 Tiny//EN" "http://www.w3.org/Graphics/SVG/1.1/DTD/svg11-tiny.dtd">
<svg version="1.1" baseProfile="tiny" id="Layer_1" xmlns="http://www.w3.org/2000/svg" xmlns:xlink="http://www.w3.org/1999/xlink"
	 x="0px" y="0px" width="31px" height="20px" viewBox="0 0 31 20" xml:space="preserve">
<g id="G_x2B__1_">
	<path fill="#231F20" d="M19.418,7.914h-4.178h-5.53v4.177h5.53c-0.825,2.213-2.939,3.799-5.415,3.799
		c-3.198,0-5.781-2.656-5.781-5.907c0-3.252,2.583-5.875,5.781-5.875c1.432,0,2.73,0.529,3.744,1.391l2.897-2.893
		C14.722,0.997,12.388,0,9.826,0C4.393,0,0,4.463,0,9.983C0,15.504,4.393,20,9.826,20c5.434,0,9.846-4.496,9.846-10.017
		c0-0.698-0.082-1.419-0.215-2.069H19.418z M27.574,8.218V4.754h-2.49v3.464h-3.426v2.541h3.426v3.47h2.49v-3.47H31V8.218H27.574z"
		/>
</g>
</svg>
