<?xml version="1.0" encoding="utf-8"?>
<!-- Generator: Adobe Illustrator 16.0.0, SVG Export Plug-In . SVG Version: 6.00 Build 0)  -->
<!DOCTYPE svg PUBLIC "-//W3C//DTD SVG 1.1 Tiny//EN" "http://www.w3.org/Graphics/SVG/1.1/DTD/svg11-tiny.dtd">
<svg version="1.1" baseProfile="tiny" id="Layer_1" xmlns="http://www.w3.org/2000/svg" xmlns:xlink="http://www.w3.org/1999/xlink"
	 x="0px" y="0px" width="25px" height="25px" viewBox="0 0 25 25" xml:space="preserve">
<g>
	<g>
		<path fill="#231F20" d="M18.754,0H6.25C2.797,0,0,2.801,0,6.22v12.563C0,22.201,2.797,25,6.25,25h12.503
			C22.204,25,25,22.201,25,18.782V6.22C25,2.801,22.204,0,18.754,0z M6.25,2.312h12.503c2.162,0,3.927,1.755,3.927,3.908v2.138
			h-6.619c-0.975-0.673-2.147-1.076-3.441-1.076c-1.276,0-2.465,0.403-3.422,1.076H2.319V6.22C2.319,4.067,4.083,2.312,6.25,2.312z
			 M15.087,13.167c0,1.361-1.107,2.468-2.467,2.468c-1.353,0-2.465-1.107-2.465-2.468c0-1.328,1.112-2.438,2.465-2.438
			C13.98,10.729,15.087,11.839,15.087,13.167z M18.754,22.692H6.25c-2.167,0-3.932-1.758-3.932-3.91v-8.117h4.93
			c-0.353,0.753-0.554,1.604-0.554,2.502c0,3.269,2.659,5.914,5.926,5.914c3.284,0,5.944-2.645,5.944-5.914
			c0-0.897-0.2-1.749-0.571-2.502h4.688v8.117C22.681,20.935,20.916,22.692,18.754,22.692z"/>
	</g>
</g>
</svg>
